<svg width="32" height="32" viewBox="0 0 32 32" fill="none" xmlns="http://www.w3.org/2000/svg">
<path d="M29.667 11.774C29.659 11.751 29.646 11.737 29.637 11.716C29.617 11.665 29.598 11.615 29.579 11.564C29.346 10.821 29.325 10.085 29.519 9.50302L29.533 9.46302C29.661 9.08802 29.691 8.63702 29.609 8.15902V8.15701C29.597 8.09601 29.585 8.03402 29.572 7.97302L29.566 7.95202C29.554 7.89702 29.539 7.84202 29.523 7.78602L29.511 7.74502C29.497 7.69802 29.48 7.64802 29.463 7.60102L29.441 7.53902L29.396 7.42402L29.359 7.33302L29.325 7.25702C29.304 7.21402 29.286 7.17302 29.265 7.13102L29.253 7.11202C29.157 6.92402 29.046 6.73902 28.914 6.56202L28.893 6.52902L28.88 6.51202C28.526 6.03202 28.104 5.65902 27.665 5.41402C27.227 5.16702 26.777 5.05001 26.361 5.05402H26.359C26.349 5.05402 26.34 5.05402 26.332 5.05202C26.314 5.05402 26.298 5.05502 26.279 5.05302H26.273C25.76 5.06702 25.182 4.90001 24.63 4.58202L24.627 4.58602C24.535 4.53102 24.443 4.47102 24.354 4.40702C23.727 3.94402 23.283 3.35702 23.098 2.77302L23.084 2.73102C22.968 2.35302 22.73 1.97102 22.383 1.63202L22.381 1.63102C22.336 1.58602 22.29 1.54302 22.242 1.50302L22.228 1.48902C22.183 1.45202 22.14 1.41602 22.093 1.38102L22.06 1.35402L21.939 1.26602L21.883 1.22802L21.779 1.16002L21.697 1.11002L21.623 1.06802C21.582 1.04402 21.541 1.02302 21.499 1.00202L21.478 0.991015C21.291 0.897015 21.092 0.812015 20.881 0.744015L20.845 0.731015L20.824 0.724015C20.255 0.545015 19.691 0.493015 19.195 0.551015C18.695 0.611015 18.261 0.778015 17.927 1.02702L17.925 1.02902C17.919 1.03502 17.909 1.04002 17.903 1.04502C17.891 1.05802 17.876 1.06602 17.86 1.07602L17.854 1.07902C17.447 1.39402 16.879 1.59902 16.25 1.66502V1.67102C16.169 1.68102 16.084 1.68202 16 1.68302C15.916 1.68202 15.832 1.68102 15.75 1.67202V1.66602C15.118 1.59902 14.552 1.39502 14.144 1.08002L14.14 1.07602C14.124 1.06602 14.11 1.05702 14.097 1.04502C14.09 1.04102 14.081 1.03502 14.076 1.02902H14.075L14.073 1.02702C13.74 0.778015 13.306 0.611015 12.806 0.551015C12.31 0.493015 11.746 0.545015 11.177 0.724015L11.156 0.731015L11.119 0.744015C10.908 0.811015 10.709 0.896015 10.522 0.991015L10.502 1.00202C10.46 1.02302 10.419 1.04402 10.379 1.06802L10.304 1.11002L10.222 1.16002L10.117 1.22802L10.063 1.26602L9.94 1.35402L9.906 1.38102C9.86 1.41602 9.817 1.45202 9.772 1.48902L9.757 1.50402C9.709 1.54402 9.663 1.58702 9.618 1.63202L9.616 1.63302C9.271 1.97202 9.031 2.35402 8.915 2.73202L8.901 2.77402C8.718 3.35802 8.272 3.94402 7.645 4.40802C7.555 4.47202 7.463 4.53202 7.372 4.58702L7.369 4.58202C6.819 4.90001 6.239 5.06602 5.725 5.05302H5.72C5.702 5.05402 5.685 5.05302 5.668 5.05202C5.659 5.05302 5.649 5.05302 5.641 5.05302H5.638C5.223 5.05002 4.773 5.16702 4.335 5.41302C3.897 5.65902 3.474 6.03102 3.12 6.51202L3.106 6.52902L3.084 6.56202C2.952 6.73902 2.841 6.92402 2.745 7.11202L2.735 7.13102C2.714 7.17302 2.694 7.21402 2.675 7.25702L2.64 7.33302L2.603 7.42402L2.558 7.53902L2.535 7.60102C2.519 7.64901 2.502 7.69802 2.488 7.74502L2.477 7.78602C2.461 7.84202 2.447 7.89702 2.433 7.95202L2.429 7.97302C2.414 8.03502 2.401 8.09701 2.392 8.15701V8.15902H2.39C2.308 8.63802 2.339 9.08801 2.466 9.46402L2.481 9.50401C2.675 10.086 2.656 10.821 2.421 11.565C2.403 11.617 2.383 11.667 2.363 11.717C2.353 11.738 2.341 11.751 2.333 11.775C1.962 12.833 0 13.492 0 15.928C0 18.253 1.521 18.896 2.05 19.64C2.191 19.878 2.31 20.141 2.404 20.423C2.439 20.529 2.467 20.634 2.49 20.738L2.484 20.741C2.617 21.362 2.595 21.963 2.424 22.45L2.423 22.455C2.419 22.472 2.413 22.488 2.406 22.503C2.403 22.512 2.401 22.522 2.397 22.529L2.396 22.532C2.264 22.927 2.24 23.39 2.338 23.883C2.437 24.376 2.66 24.895 3.008 25.378L3.023 25.398L3.044 25.429C3.174 25.607 3.316 25.772 3.464 25.919L3.481 25.935C3.513 25.967 3.547 26 3.582 26.032L3.645 26.089L3.718 26.152L3.814 26.231L3.867 26.272L3.99 26.361L4.025 26.382C4.074 26.415 4.121 26.445 4.17 26.478L4.188 26.489C4.244 26.522 4.297 26.551 4.353 26.582H4.356C4.785 26.807 5.221 26.917 5.618 26.911L5.661 26.909C6.274 26.904 6.968 27.148 7.602 27.6C8.233 28.072 8.68 28.666 8.858 29.257L8.86 29.262C8.867 29.28 8.872 29.296 8.874 29.313C8.878 29.322 8.883 29.331 8.885 29.337L8.886 29.34C9.011 29.736 9.265 30.125 9.635 30.465C10.005 30.804 10.491 31.092 11.059 31.278C11.269 31.345 11.48 31.395 11.687 31.427L11.708 31.432C11.755 31.439 11.801 31.445 11.847 31.45L11.932 31.46L12.03 31.468L12.154 31.477L12.22 31.478H12.37L12.413 31.477C12.471 31.473 12.528 31.471 12.584 31.465L12.605 31.464C12.669 31.458 12.732 31.449 12.794 31.443H12.796C13.276 31.371 13.692 31.202 14.011 30.964L14.044 30.94C14.532 30.578 15.231 30.367 16.002 30.358C16.773 30.367 17.473 30.578 17.96 30.94L17.993 30.964C18.31 31.201 18.726 31.37 19.208 31.443H19.21C19.273 31.451 19.335 31.46 19.398 31.464L19.419 31.465C19.477 31.471 19.533 31.473 19.591 31.477L19.634 31.478H19.784L19.849 31.477L19.974 31.468L20.072 31.46L20.157 31.45C20.204 31.445 20.249 31.439 20.296 31.432L20.317 31.427C20.524 31.395 20.735 31.345 20.946 31.278C21.512 31.091 22 30.803 22.369 30.465C22.739 30.125 22.994 29.736 23.119 29.34L23.121 29.337C23.122 29.329 23.127 29.32 23.131 29.313C23.133 29.296 23.138 29.28 23.146 29.262L23.148 29.257C23.326 28.666 23.773 28.07 24.404 27.6C25.039 27.148 25.732 26.904 26.344 26.909L26.388 26.911C26.784 26.917 27.22 26.807 27.65 26.582H27.652C27.709 26.552 27.761 26.522 27.818 26.489L27.836 26.478C27.885 26.447 27.934 26.416 27.981 26.382L28.016 26.361L28.139 26.272L28.192 26.231L28.289 26.152L28.362 26.089L28.425 26.032C28.459 26.001 28.493 25.969 28.528 25.935L28.544 25.919C28.692 25.772 28.834 25.607 28.964 25.429L28.985 25.398L29 25.378C29.349 24.895 29.571 24.376 29.67 23.883C29.771 23.393 29.744 22.927 29.612 22.532L29.61 22.529C29.606 22.52 29.606 22.51 29.602 22.503C29.595 22.488 29.588 22.472 29.585 22.455L29.583 22.45C29.412 21.963 29.391 21.362 29.523 20.741L29.517 20.738C29.539 20.634 29.568 20.529 29.603 20.423C29.697 20.141 29.816 19.878 29.957 19.64C30.484 18.896 32.007 18.252 32.007 15.928C32 13.492 30.038 12.833 29.667 11.774ZM27.426 19.394C27.298 19.829 27.147 20.253 26.968 20.673C26.366 22.097 25.504 23.375 24.406 24.476C23.308 25.573 22.029 26.436 20.605 27.037C19.146 27.654 17.595 27.97 16 27.975C14.402 27.969 12.854 27.655 11.394 27.037C9.971 26.436 8.692 25.573 7.594 24.476C6.939 23.819 6.378 23.091 5.896 22.315H9.27C9.374 22.321 9.474 22.324 9.572 22.324C9.806 22.324 10.041 22.31 10.267 22.296C10.466 22.284 10.658 22.275 10.833 22.275H10.914C11.081 22.31 11.249 22.329 11.423 22.347C11.579 22.364 11.739 22.38 11.909 22.411C12.098 22.449 12.294 22.634 12.484 22.812C12.594 22.916 12.702 23.015 12.808 23.092C12.916 23.167 13.022 23.244 13.129 23.323C13.459 23.562 13.801 23.811 14.188 23.984C14.666 24.19 15.193 24.256 15.705 24.323C15.953 24.355 16.2 24.385 16.436 24.434C16.589 24.451 16.721 24.464 16.856 24.481C17.256 24.526 17.67 24.574 18.085 24.574C18.366 24.574 18.611 24.552 18.84 24.507C19.657 24.276 20.177 23.612 20.177 22.852C20.593 22.688 20.964 22.339 21.198 21.897C21.407 21.5 21.478 21.075 21.402 20.699C22.191 20.182 22.597 19.216 22.38 18.386C22.729 18.148 22.968 17.745 23.051 17.257C23.167 16.58 22.958 15.861 22.522 15.426C21.94 14.873 21.137 14.738 20.43 14.622C20.319 14.602 20.208 14.583 20.1 14.564C20.022 14.543 19.918 14.52 19.817 14.496C18.873 14.276 18.206 14.062 18.204 13.289C18.202 12.78 18.37 12.31 18.546 11.81C18.749 11.238 18.96 10.645 18.927 9.95502C18.863 8.72602 18.341 7.65702 17.531 7.09302C17.209 6.83502 16.782 6.68202 16.378 6.68202C15.776 6.68202 15.326 7.00902 15.144 7.58002C15.015 7.96502 15.037 8.33902 15.058 8.73501C15.064 8.83202 15.07 8.93202 15.074 9.03602C15.097 9.58102 15.031 10.032 14.872 10.458C14.57 11.309 13.965 12.101 13.471 12.697L13.2 13.038C12.822 13.515 12.431 14.008 11.988 14.403C11.769 14.576 11.537 14.637 11.237 14.703C11.154 14.706 10.306 14.73 9.984 14.73C9.811 14.73 9.617 14.737 9.414 14.758L4.164 14.808C4.296 13.551 4.579 12.646 4.579 12.646C4.707 12.213 4.859 11.786 5.037 11.366C5.64 9.94302 6.5 8.66502 7.599 7.56602C8.697 6.46902 9.976 5.60602 11.399 5.00402C12.859 4.38702 14.408 4.07202 16.005 4.06602C17.602 4.07202 19.151 4.38602 20.611 5.00402C22.035 5.60602 23.312 6.46902 24.411 7.56602C25.509 8.66502 26.371 9.94302 26.973 11.366C27.151 11.786 27.303 12.214 27.432 12.646C27.432 12.646 27.912 14.171 27.912 16.02C27.907 17.48 27.568 18.872 27.426 19.394Z" fill="#333333"/>
</svg>
