<svg width="56" height="56" viewBox="0 0 56 56" fill="none" xmlns="http://www.w3.org/2000/svg">
<path d="M8.9397 12.9362H42.1646C43.1878 12.9362 44.0173 12.1067 44.0173 11.0835C44.0173 10.0603 43.1878 9.23077 42.1646 9.23077H8.9397C7.91651 9.23077 7.08698 10.0603 7.08698 11.0835C7.08698 12.1067 7.91651 12.9362 8.9397 12.9362Z" fill="#333333"/>
<path d="M8.9397 20.8411H42.1646C43.1878 20.8411 44.0173 20.0115 44.0173 18.9883C44.0173 17.9652 43.1878 17.1356 42.1646 17.1356H8.9397C7.91651 17.1356 7.08698 17.9652 7.08698 18.9883C7.08698 20.0115 7.91651 20.8411 8.9397 20.8411Z" fill="#333333"/>
<path d="M26.5666 25.0406H8.9397C7.91651 25.0406 7.08698 25.8701 7.08698 26.8933C7.08698 27.9165 7.91651 28.746 8.9397 28.746H26.5666C27.5898 28.746 28.4194 27.9165 28.4194 26.8933C28.4194 25.8701 27.5898 25.0406 26.5666 25.0406Z" fill="#333333"/>
<path d="M55.8965 53.2088L51.0526 43.6181L52.9269 42.8701C53.4192 42.6736 53.8322 42.1054 53.8673 41.5765L54.0269 39.1717C54.0536 38.7688 54.2578 38.1403 54.4729 37.799L55.7569 35.7596C56.0394 35.3113 56.0394 34.6088 55.757 34.1603L54.4729 32.121C54.2581 31.7796 54.0538 31.1509 54.027 30.7483L53.8675 28.3434C53.8374 27.8907 53.5298 27.4098 53.1334 27.1574V4.86243C53.1334 2.81918 51.4712 1.15698 49.4281 1.15698H3.70532C1.66219 1.15698 0 2.81918 0 4.86243V36.6024C0 38.6457 1.66219 40.3078 3.70532 40.3078H32.8497L32.9338 41.5767C32.969 42.1055 33.3819 42.6736 33.8742 42.8701L35.6339 43.5724L30.7668 53.2088C30.6171 53.5054 30.6572 53.6841 30.7173 53.7818C30.7554 53.8438 30.8486 53.9474 31.045 53.9474C31.1432 53.9474 31.2563 53.9209 31.3813 53.8687L35.3682 52.1995C35.4662 52.1585 35.5829 52.1368 35.7055 52.1368C35.9983 52.1368 36.2968 52.2579 36.4658 52.4451L38.381 54.5685C38.5406 54.7455 38.7383 54.8431 38.9373 54.8431C39.1999 54.8431 39.4355 54.6733 39.5672 54.3893L43.3194 46.2952C43.3276 46.2951 43.3356 46.2951 43.3438 46.2949L47.0961 54.3893C47.2278 54.6734 47.4633 54.8431 47.7262 54.8431C47.925 54.8431 48.1227 54.7455 48.2823 54.5684L50.1974 52.4452C50.3665 52.2579 50.665 52.1368 50.9577 52.1368C51.0802 52.1368 51.1969 52.1585 51.295 52.1995L55.2819 53.8687C55.4068 53.9209 55.52 53.9474 55.6182 53.9474C55.8147 53.9474 55.9078 53.8436 55.9458 53.7818C56.0061 53.6841 56.0462 53.5054 55.8965 53.2088ZM3.70532 4.86243H49.4279L49.4281 25.1963L47.9797 23.4537C47.7153 23.1357 47.2311 22.922 46.7751 22.922C46.664 22.922 46.5578 22.9347 46.4591 22.9598L44.1215 23.5548C43.7491 23.6495 43.0518 23.6495 42.6793 23.5548L40.342 22.9598C40.2433 22.9347 40.1371 22.922 40.026 22.922C39.5699 22.922 39.0858 23.1357 38.8214 23.4537L37.2803 25.308C37.0226 25.6183 36.4881 26.0066 36.1135 26.1561L33.8744 27.05C33.3821 27.2465 32.969 27.8146 32.934 28.3434L32.7744 30.7483C32.7477 31.1511 32.5436 31.7796 32.3285 32.121L31.0445 34.1603C30.762 34.6087 30.762 35.3113 31.0445 35.7596L31.5751 36.6023H3.70532V4.86243ZM43.4004 42.8374C39.0499 42.8374 35.523 39.3107 35.523 34.96C35.523 30.6093 39.0499 27.0826 43.4004 27.0826C47.7511 27.0826 51.2781 30.6093 51.2781 34.96C51.2782 39.3107 47.7511 42.8374 43.4004 42.8374Z" fill="#333333"/>
</svg>
