<svg width="24" height="23" viewBox="0 0 24 23" fill="none" xmlns="http://www.w3.org/2000/svg">
<path d="M20.625 17.5135C21.1406 17.7771 21.6055 18.1005 22.0195 18.4839C22.4336 18.8672 22.7852 19.2944 23.0742 19.7656C23.3633 20.2368 23.5898 20.7479 23.7539 21.299C23.918 21.85 24 22.417 24 23H22.5C22.5 22.3691 22.3828 21.7741 22.1484 21.2151C21.9141 20.6561 21.5938 20.1689 21.1875 19.7536C20.7812 19.3384 20.3008 19.0069 19.7461 18.7594C19.1914 18.5118 18.6094 18.392 18 18.4C17.375 18.4 16.793 18.5198 16.2539 18.7594C15.7148 18.999 15.2383 19.3264 14.8242 19.7417C14.4102 20.1569 14.0859 20.6481 13.8516 21.2151C13.6172 21.7821 13.5 22.3771 13.5 23H12C12 22.417 12.0781 21.85 12.2344 21.299C12.3906 20.7479 12.6172 20.2368 12.9141 19.7656C13.2109 19.2944 13.5664 18.8672 13.9805 18.4839C14.3945 18.1005 14.8594 17.7771 15.375 17.5135C14.7891 17.0823 14.332 16.5432 14.0039 15.8964C13.6758 15.2495 13.5078 14.5507 13.5 13.8C13.5 13.1691 13.6172 12.5741 13.8516 12.0151C14.0859 11.4561 14.4062 10.9689 14.8125 10.5536C15.2188 10.1384 15.6953 9.80694 16.2422 9.55937C16.7891 9.31181 17.375 9.19201 18 9.2C18.6172 9.2 19.1992 9.31979 19.7461 9.55937C20.293 9.79896 20.7695 10.1264 21.1758 10.5417C21.582 10.9569 21.9062 11.4481 22.1484 12.0151C22.3906 12.5821 22.5078 13.1771 22.5 13.8C22.5 14.5507 22.3359 15.2495 22.0078 15.8964C21.6797 16.5432 21.2188 17.0823 20.625 17.5135ZM18 16.8667C18.4141 16.8667 18.8008 16.7868 19.1602 16.6271C19.5195 16.4674 19.8398 16.2477 20.1211 15.9682C20.4023 15.6887 20.6172 15.3653 20.7656 14.9979C20.9141 14.6306 20.9922 14.2312 21 13.8C21 13.3767 20.9219 12.9814 20.7656 12.6141C20.6094 12.2467 20.3945 11.9193 20.1211 11.6318C19.8477 11.3443 19.5312 11.1247 19.1719 10.9729C18.8125 10.8212 18.4219 10.7413 18 10.7333C17.5859 10.7333 17.1992 10.8132 16.8398 10.9729C16.4805 11.1326 16.1602 11.3523 15.8789 11.6318C15.5977 11.9113 15.3828 12.2347 15.2344 12.6021C15.0859 12.9694 15.0078 13.3687 15 13.8C15 14.2233 15.0781 14.6186 15.2344 14.9859C15.3906 15.3533 15.6055 15.6807 15.8789 15.9682C16.1523 16.2557 16.4688 16.4753 16.8281 16.6271C17.1875 16.7788 17.5781 16.8587 18 16.8667ZM12 17.825C11.75 18.1205 11.5234 18.428 11.3203 18.7474C11.1172 19.0668 10.9375 19.4102 10.7812 19.7776C10.3672 19.3384 9.86719 18.999 9.28125 18.7594C8.69531 18.5198 8.10156 18.4 7.5 18.4H3V3.06667H1.5V19.9333H10.7227C10.6133 20.1809 10.5234 20.4325 10.4531 20.688C10.3828 20.9436 10.3242 21.2031 10.2773 21.4667H0V1.53333H3V0H7.5C8.1875 0 8.84766 0.107812 9.48047 0.323437C10.1133 0.539062 10.7031 0.8625 11.25 1.29375C11.7891 0.8625 12.375 0.539062 13.0078 0.323437C13.6406 0.107812 14.3047 0 15 0H19.5V1.53333H22.5V9.2C22.0469 8.74479 21.5469 8.36545 21 8.06198V3.06667H19.5V7.48698C19.25 7.4151 19 7.36319 18.75 7.33125C18.5 7.29931 18.25 7.28333 18 7.28333V1.53333H15C14.4531 1.53333 13.9219 1.62917 13.4062 1.82083C12.8906 2.0125 12.4219 2.29601 12 2.67135V17.825ZM10.5 17.6693V2.67135C10.0781 2.30399 9.60938 2.02448 9.09375 1.83281C8.57812 1.64115 8.04688 1.54132 7.5 1.53333H4.5V16.8667H7.5C8.02344 16.8667 8.53906 16.9345 9.04688 17.0703C9.55469 17.2061 10.0391 17.4057 10.5 17.6693Z" fill="#4E8BB8"/>
</svg>
