<svg width="52" height="52" viewBox="0 0 52 52" fill="none" xmlns="http://www.w3.org/2000/svg">
<g clip-path="url(#clip0_18_434)">
<path d="M17.3333 23.8334C20.2065 23.8334 22.962 22.692 24.9936 20.6603C27.0253 18.6287 28.1666 15.8732 28.1666 13C28.1666 10.1268 27.0253 7.37134 24.9936 5.3397C22.962 3.30805 20.2065 2.16669 17.3333 2.16669C14.4601 2.16669 11.7046 3.30805 9.67297 5.3397C7.64133 7.37134 6.49996 10.1268 6.49996 13C6.49996 15.8732 7.64133 18.6287 9.67297 20.6603C11.7046 22.692 14.4601 23.8334 17.3333 23.8334ZM17.3333 23.8334C21.6948 23.8334 25.506 25.48 28.2165 28.2165C29.8238 29.8456 31.0261 31.8293 31.7265 34.008M17.3333 23.8334C8.66663 23.8334 2.16663 30.3334 2.16663 39V49.8334H23.8333M26 40.7854L35.0783 47.6667L49.8333 28.1667" stroke="#333333" stroke-width="4"/>
</g>
<defs>
<clipPath id="clip0_18_434">
<rect width="52" height="52" fill="white"/>
</clipPath>
</defs>
</svg>
