<svg width="23" height="23" viewBox="0 0 23 23" fill="none" xmlns="http://www.w3.org/2000/svg">
<path d="M1.4375 19.1875H12.4491L12.0116 19.625H0.5V1.9375H22.5V11.9689C22.3585 11.8758 22.2127 11.7874 22.0625 11.704V7.1875V6.6875H21.5625H1.4375H0.9375V7.1875V18.6875V19.1875H1.4375ZM21.5625 6.25H22.0625V5.75V2.875V2.375H21.5625H1.4375H0.9375V2.875V5.75V6.25H1.4375H21.5625ZM19.3988 13.4487L19.3988 13.4487H19.4062C19.844 13.4487 20.2442 13.53 20.6121 13.6887C20.9906 13.8518 21.3153 14.0712 21.5908 14.3467C21.8648 14.6208 22.0842 14.948 22.2476 15.3337C22.4079 15.7119 22.4888 16.1133 22.4888 16.5425C22.4888 16.966 22.4109 17.3563 22.2584 17.7186C22.103 18.0878 21.8871 18.4131 21.6092 18.6974C21.3326 18.9804 21.0164 19.1974 20.658 19.351C20.3054 19.5021 19.9113 19.5843 19.4699 19.5913C19.1576 19.591 18.8527 19.5486 18.5539 19.4642C18.2568 19.3802 17.9755 19.2542 17.7087 19.0851L17.3705 18.8706L17.0874 19.1538L14.83 21.4111C14.6553 21.5859 14.4842 21.7607 14.3169 21.9356C14.1604 22.0992 13.9967 22.2595 13.8255 22.4165C13.7811 22.4562 13.7462 22.4818 13.7207 22.4977C13.7126 22.4988 13.6989 22.5 13.6787 22.5C13.629 22.5 13.5807 22.4869 13.5157 22.4218C13.4506 22.3568 13.4375 22.3085 13.4375 22.2588C13.4375 22.2447 13.4383 22.235 13.439 22.229C13.458 22.1972 13.4879 22.154 13.5329 22.0986C13.6786 21.9324 13.8312 21.7731 13.9906 21.6206C14.1629 21.4558 14.339 21.2872 14.5188 21.1149L14.5189 21.115L14.5264 21.1075C14.9094 20.7245 15.2849 20.3452 15.653 19.9696C16.0175 19.5977 16.3932 19.2219 16.7803 18.8423L17.0639 18.5642L16.8571 18.225C16.6925 17.9551 16.5685 17.6739 16.4838 17.3808C16.3995 17.0891 16.3532 16.7823 16.3462 16.4588C16.3468 16.0315 16.4277 15.6416 16.5848 15.2834C16.7472 14.9132 16.9656 14.5964 17.24 14.3284C17.5173 14.0575 17.8409 13.84 18.2145 13.6762C18.5707 13.5199 18.9632 13.4422 19.3988 13.4487ZM22.0731 16.4888L22.0737 16.4764V16.4639C22.0737 16.1225 22.0021 15.7936 21.8605 15.4821C21.722 15.1775 21.5294 14.9038 21.2871 14.6616C21.0449 14.4193 20.7712 14.2267 20.4667 14.0883C20.1575 13.9477 19.8295 13.8732 19.4871 13.864L19.4871 13.8638H19.4736C19.1109 13.8638 18.7629 13.9387 18.4347 14.0887C18.1112 14.2366 17.8258 14.4444 17.5803 14.7081C17.3449 14.961 17.154 15.2396 17.011 15.5435C16.8571 15.8705 16.7837 16.2249 16.7837 16.5986C16.7837 16.9461 16.8481 17.2788 16.9806 17.5913C17.1102 17.8966 17.2921 18.1677 17.5254 18.4009C17.7586 18.6341 18.0296 18.8161 18.335 18.9456C18.6491 19.0789 18.9857 19.1426 19.3389 19.1426C19.6969 19.1426 20.0411 19.0733 20.3669 18.9337C20.6879 18.7961 20.9778 18.6002 21.236 18.3509C21.4957 18.1001 21.6997 17.8154 21.8403 17.4967C21.9791 17.1821 22.0553 16.8446 22.0731 16.4888Z" fill="#4E8BB8" stroke="#4E8BB8"/>
</svg>
