<svg width="18" height="18" viewBox="0 0 18 18" fill="none" xmlns="http://www.w3.org/2000/svg">
<path d="M15.75 10.8844L12.439 9.40014L12.4263 9.39451C12.2111 9.30173 11.9761 9.26438 11.7427 9.28587C11.5093 9.30737 11.285 9.38702 11.0904 9.51756C11.0631 9.53583 11.0368 9.55554 11.0116 9.57662L9.44297 10.9126C8.52891 10.4169 7.58461 9.48029 7.08821 8.57748L8.42836 6.9842C8.44991 6.95848 8.46987 6.93148 8.48813 6.90334C8.61524 6.70938 8.69242 6.48701 8.71278 6.25601C8.73314 6.02501 8.69607 5.79256 8.60485 5.57935C8.60268 5.57527 8.6008 5.57104 8.59922 5.5667L7.11563 2.25006C6.99385 1.97269 6.78601 1.7419 6.52287 1.59184C6.25972 1.44178 5.95526 1.38043 5.65454 1.41685C4.63386 1.55094 3.69689 2.05197 3.01862 2.82638C2.34035 3.60079 1.96716 4.59561 1.96876 5.62506C1.96876 11.3633 6.6368 16.0313 12.375 16.0313C13.4045 16.0329 14.3993 15.6597 15.1737 14.9814C15.9481 14.3032 16.4491 13.3662 16.5832 12.3455C16.6196 12.0448 16.5583 11.7403 16.4082 11.4772C16.2582 11.2141 16.0274 11.0062 15.75 10.8844ZM12.375 14.3438C10.0635 14.341 7.84748 13.4215 6.213 11.7871C4.57852 10.1526 3.65905 7.93656 3.65626 5.62506C3.65464 5.04251 3.85241 4.47696 4.2167 4.02237C4.58099 3.56777 5.08986 3.25152 5.65876 3.12615L6.98204 6.07928L5.63485 7.68381C5.61307 7.70976 5.59288 7.73699 5.57438 7.76537C5.44159 7.96826 5.36353 8.20204 5.34776 8.444C5.33199 8.68597 5.37905 8.9279 5.48438 9.14631C6.14672 10.5019 7.51149 11.8576 8.88118 12.5213C9.10104 12.6255 9.34419 12.6709 9.58686 12.6531C9.82953 12.6352 10.0634 12.5547 10.2656 12.4194C10.2928 12.401 10.3189 12.3811 10.3437 12.3596L11.9208 11.0187L14.8739 12.3413C14.7485 12.9102 14.4323 13.4191 13.9777 13.7834C13.5231 14.1476 12.9575 14.3454 12.375 14.3438Z" fill="white"/>
</svg>
