<svg width="64" height="65" viewBox="0 0 64 65" fill="none" xmlns="http://www.w3.org/2000/svg">
<g clip-path="url(#clip0_18_416)">
<path d="M59.4547 5.30252H35.1131C35.3795 4.79484 35.569 4.24256 35.569 3.62613C35.569 1.62337 33.9706 0 31.9987 0C30.0267 0 28.4283 1.62337 28.4283 3.62613C28.4283 4.24256 28.6178 4.79213 28.8843 5.30252H4.551C2.73833 5.30252 1.26624 6.80317 1.26624 8.63861V45.4132C1.26624 47.2486 2.73833 48.752 4.5482 48.752H24.446L20.5818 62.5955C20.3126 63.555 20.8811 64.4922 21.8479 64.6708L23.3859 64.9692C24.3527 65.1505 25.3605 64.5146 25.627 63.5606L29.7632 48.7493H34.2398L38.3786 63.5578C38.6423 64.5146 39.6557 65.1505 40.6197 64.9664L42.1495 64.6679C43.1163 64.4893 43.6848 63.5522 43.4156 62.5926L39.5514 48.752H59.4547C61.2563 48.752 62.7338 47.2485 62.7338 45.4132V8.63861C62.7339 6.80601 61.2591 5.30252 59.4547 5.30252ZM56.4858 42.2472H7.5088V11.1183H56.4858V42.2472Z" fill="#333333"/>
<path d="M13.2818 37.0229C14.6879 37.0229 15.8277 35.8653 15.8277 34.4372C15.8277 34.1778 15.7536 33.9434 15.6821 33.7091C18.9339 31.0453 24.6821 26.3481 27.2995 24.3007C27.7141 24.5963 28.192 24.8084 28.7359 24.8084C29.1864 24.8084 29.5873 24.6578 29.9553 24.4485C31.6388 25.9017 34.5006 28.3731 36.5357 30.1276C36.5082 30.2754 36.4479 30.4121 36.4479 30.5683C36.4479 31.9993 37.5903 33.1568 38.9966 33.1568C40.4082 33.1568 41.548 31.9993 41.548 30.5683C41.548 30.3145 41.4739 30.0857 41.4051 29.8542L47.9828 23.8266C48.3372 24.0134 48.7217 24.1474 49.1473 24.1474C50.5534 24.1474 51.6905 22.9898 51.6905 21.5617C51.6905 20.1363 50.5536 18.9787 49.1473 18.9787C47.7412 18.9787 46.6041 20.1363 46.6041 21.5617C46.6041 21.902 46.6755 22.2227 46.7935 22.5212C44.9561 24.206 42.1192 26.8056 40.3504 28.429C39.9521 28.1696 39.5045 27.9772 38.9965 27.9772C38.3978 27.9772 37.8704 28.2199 37.4365 28.5714C35.7558 27.1209 33.0395 24.7779 31.106 23.1098C31.2076 22.8309 31.2818 22.538 31.2818 22.2256C31.2818 20.7975 30.142 19.6426 28.7386 19.6426C27.3351 19.6426 26.1927 20.8002 26.1927 22.2283C26.1927 22.5435 26.2668 22.8363 26.3685 23.1125L14.6907 32.3396C14.2843 32.0551 13.8146 31.8515 13.2818 31.8515C11.8756 31.8515 10.7358 33.009 10.7358 34.4372C10.7358 35.8653 11.8756 37.0229 13.2818 37.0229Z" fill="#333333"/>
</g>
<defs>
<clipPath id="clip0_18_416">
<rect width="64" height="65" fill="white"/>
</clipPath>
</defs>
</svg>
